<svg fill="#FFFFFF" xmlns="http://www.w3.org/2000/svg"  viewBox="0 0 24 24" width="288px" height="288px"><path d="M11.632,21.96l-6.031-1.84	c-0.477-0.146-0.823-0.56-0.876-1.053L3.004,3.387C2.922,2.64,3.502,2,4.246,2h15.503c0.743,0,1.323,0.64,1.241,1.387l-1.721,15.68	c-0.053,0.493-0.399,0.907-0.876,1.053l-6.029,1.84C12.125,22.04,11.87,22.04,11.632,21.96z M12.342,16.973L15.07,16.2	c0.484-0.146,0.837-0.56,0.897-1.066l0.911-7.747C16.965,6.654,16.384,6,15.637,6h-7.28C7.666,6,7.106,6.56,7.106,7.24	c0,0.693,0.56,1.253,1.251,1.253h5.873l-0.148,1.253h-2.084c-0.691,0-1.251,0.56-1.251,1.253s0.56,1.253,1.251,1.253h1.789	l-0.207,1.773l-1.584,0.453l-1.585-0.453L10.31,13.16c-0.081-0.68-0.703-1.173-1.388-1.094c-0.685,0.08-1.176,0.693-1.096,1.387	l0.199,1.68c0.06,0.507,0.413,0.92,0.899,1.066l2.731,0.773C11.878,17.04,12.117,17.04,12.342,16.973z"/></svg>